<svg xmlns="http://www.w3.org/2000/svg" viewBox="0 0 7.44 9.28"><defs><style>.cls-1{fill:#fdda02;}</style></defs><title>map-marker-alt</title><g id="Camada_2" data-name="Camada 2"><g id="device_frames" data-name="device frames"><path class="cls-1" d="M3.72,9.28c-.14,0-.22,0-.63-.39-.18-.17-.48-.46-.84-.84A11.71,11.71,0,0,1,.31,5.22h0A4.06,4.06,0,0,1,0,3.72,3.73,3.73,0,0,1,3.72,0h0A3.73,3.73,0,0,1,7.44,3.72a4.06,4.06,0,0,1-.31,1.49h0A11.45,11.45,0,0,1,5.18,8.06c-.35.39-.65.67-.84.84C3.94,9.26,3.86,9.28,3.72,9.28ZM1,4.9A11.77,11.77,0,0,0,3.72,8.41,11.59,11.59,0,0,0,6.41,4.9a3.41,3.41,0,0,0,.25-1.19,2.94,2.94,0,0,0-5.88,0A3.2,3.2,0,0,0,1,4.9Zm2.69.38A1.58,1.58,0,1,1,5.3,3.69,1.58,1.58,0,0,1,3.72,5.27Zm0-2.38a.8.8,0,1,0,.8.8A.79.79,0,0,0,3.72,2.9Z"/></g></g></svg>