<svg xmlns="http://www.w3.org/2000/svg" viewBox="0 0 15.03 15.71"><defs><style>.cls-1{fill:#fdda02;}</style></defs><title>tel-icon</title><g id="Camada_2" data-name="Camada 2"><g id="device_frames" data-name="device frames"><path class="cls-1" d="M8.12,3.74a4,4,0,0,1,2.19,1.19,4.29,4.29,0,0,1,1.14,2.29.43.43,0,0,0,.42.37h.07a.45.45,0,0,0,.35-.52,5.19,5.19,0,0,0-1.38-2.77A4.83,4.83,0,0,0,8.27,2.86a.43.43,0,0,0-.5.36.44.44,0,0,0,.35.52Zm0,0"/><path class="cls-1" d="M15,6.93a8.55,8.55,0,0,0-2.27-4.56A8,8,0,0,0,8.39,0,.43.43,0,0,0,7.9.37a.45.45,0,0,0,.35.52A7.12,7.12,0,0,1,12.15,3a7.63,7.63,0,0,1,2,4.08.43.43,0,0,0,.42.37h.07A.44.44,0,0,0,15,6.93Zm0,0"/><path class="cls-1" d="M11.88,9.73a1.45,1.45,0,0,0-1.07-.51,1.5,1.5,0,0,0-1.09.51l-1,1-.24-.13-.31-.18A11.09,11.09,0,0,1,5.55,8a6.78,6.78,0,0,1-.86-1.41c.26-.25.5-.51.74-.76l.27-.28a1.57,1.57,0,0,0,0-2.29l-.87-.91L4.53,2c-.19-.21-.39-.42-.6-.62A1.47,1.47,0,0,0,2.87.91a1.53,1.53,0,0,0-1.08.49h0L.7,2.54A2.47,2.47,0,0,0,0,4.08,6,6,0,0,0,.42,6.54a14.42,14.42,0,0,0,2.43,4.23,15.06,15.06,0,0,0,5,4.07,7.52,7.52,0,0,0,2.8.86h.2a2.35,2.35,0,0,0,1.83-.82v0a7.41,7.41,0,0,1,.56-.6l.41-.43a1.69,1.69,0,0,0,.48-1.15,1.63,1.63,0,0,0-.49-1.14ZM13,13.22h0c-.12.14-.25.27-.39.4a8.59,8.59,0,0,0-.61.66,1.5,1.5,0,0,1-1.19.53h-.15A6.68,6.68,0,0,1,8.2,14a14.22,14.22,0,0,1-4.69-3.83,13.6,13.6,0,0,1-2.29-4A4.92,4.92,0,0,1,.87,4.16a1.55,1.55,0,0,1,.44-1L2.39,2a.71.71,0,0,1,.48-.24A.67.67,0,0,1,3.34,2h0c.19.19.38.38.57.59l.3.32.87.91a.65.65,0,0,1,0,1l-.27.29c-.27.29-.52.55-.8.81L4,6a.7.7,0,0,0-.17.75v0a7.34,7.34,0,0,0,1,1.75h0A11.85,11.85,0,0,0,7.7,11.22a4.25,4.25,0,0,0,.39.22l.31.18,0,0a.63.63,0,0,0,.8-.15l1.09-1.13a.71.71,0,0,1,.48-.25.64.64,0,0,1,.46.24h0L13,12.19a.67.67,0,0,1,0,1Zm0,0"/></g></g></svg>