<svg xmlns="http://www.w3.org/2000/svg" viewBox="0 0 7.55 7.23"><defs><style>.cls-1{fill:#fdda02;}</style></defs><title>whatsapp_1</title><g id="Camada_2" data-name="Camada 2"><g id="device_frames" data-name="device frames"><path class="cls-1" d="M3.87,0A3.62,3.62,0,0,1,7.55,3.55,3.62,3.62,0,0,1,3.87,7.1,3.76,3.76,0,0,1,2,6.59L0,7.23l.65-2A3.44,3.44,0,0,1,.19,3.55,3.62,3.62,0,0,1,3.87,0ZM7,3.55a3,3,0,0,0-3.09-3,3,3,0,0,0-3.09,3,2.9,2.9,0,0,0,.51,1.64L.91,6.34,2.06,6a3.15,3.15,0,0,0,1.81.57A3,3,0,0,0,7,3.55ZM3,1.76a.78.78,0,0,0-.43.05.88.88,0,0,0-.43.59c0,.16-.14.16.23,1A3.62,3.62,0,0,0,3.75,4.93a1.78,1.78,0,0,0,.93.36A1,1,0,0,0,5.44,5a.32.32,0,0,0,.11-.23c0-.06,0-.12,0-.17s0-.12-.15-.2l-.67-.27a.17.17,0,0,0-.16,0,.6.6,0,0,0-.15.09l-.16.13a.13.13,0,0,1-.18,0,2.72,2.72,0,0,1-.62-.48A2.37,2.37,0,0,1,3,3.18C3,3.09,3,3,3,3s.26-.22.35-.28.07-.12,0-.2S3.17,2,3.13,1.92,3.06,1.78,3,1.76Zm0,0"/></g></g></svg>